# AST/ASF file generated using VICON BodyLanguage
# -----------------------------------------------
:version 1.10
:name VICON
:units
  mass 1.0
  length 0.45
  angle deg
:documentation
   .ast/.asf automatically generated from VICON data using
   VICON BodyBuilder and BodyLanguage model FoxedUp or BRILLIANT.MOD
:root
   order TX TY TZ RX RY RZ
   axis XYZ
   position 0 0 0  
   orientation 0 0 0 
:bonedata
  begin
     id 1 
     name lhipjoint
     direction 0.567725 -0.736092 0.368589 
     length 2.42353 
     axis 0 0 0  XYZ
  end
  begin
     id 2 
     name lfemur
     direction 0.34202 -0.939693 0  
     length 7.24894  
     axis 0 0 20  XYZ
    dof rx ry rz
    limits (-160.0 20.0)
           (-70.0 70.0)
           (-60.0 70.0)
  end
  begin
     id 3 
     name ltibia
     direction 0.34202 -0.939693 0   
     length 7.6997   
     axis 0 0 20   XYZ
    dof rx
    limits (-10.0 170.0)
  end
  begin
     id 4 
     name lfoot
     direction 0.100767 -0.276854 0.955614   
     length 2.37556   
     axis -90 7.62852e-016 20   XYZ
    dof rx rz
    limits (-45.0 90.0)
           (-70.0 20.0)
  end
  begin
     id 5 
     name ltoes
     direction 1.53592e-011 -4.21894e-011 1   
     length 1.18363   
     axis -90 7.62852e-016 20   XYZ
    dof rx
    limits (-90.0 20.0)
  end
  begin
     id 6 
     name rhipjoint
     direction -0.556459 -0.742938 0.372017   
     length 2.4012  
     axis 0 0 0  XYZ 
  end
  begin
     id 7 
     name rfemur
     direction -0.34202 -0.939693 0   
     length 7.5119   
     axis 0 0 -20   XYZ
    dof rx ry rz
    limits (-160.0 20.0)
           (-70.0 70.0)
           (-70.0 60.0)
  end
  begin
     id 8 
     name rtibia
     direction -0.34202 -0.939693 0   
     length 7.50155   
     axis 0 0 -20   XYZ
    dof rx
    limits (-10.0 170.0)
 end
 begin
     id 9 
     name rfoot
     direction -0.118427 -0.325376 0.938139   
     length 2.32487  
     axis -90 -7.62852e-016 -20   XYZ
    dof rx rz
    limits (-45.0 90.0)
           (-20.0 70.0)
  end
  begin
     id 10 
     name rtoes
     direction -1.53525e-011 -4.21868e-011 1   
     length 1.15233   
     axis -90 -7.62852e-016 -20   XYZ
    dof rx
    limits (-90.0 20.0)
  end
  begin
     id 11 
     name lowerback
     direction 0.0287568 0.999577 -0.00434502   
     length 2.15243   
     axis 0 0 0   XYZ
    dof rx ry rz
    limits (-20.0 45.0)
           (-30.0 30.0)
           (-30.0 30.0)
  end
  begin
     id 12 
     name upperback
     direction 0.0294009 0.99956 0.00404628   
     length 2.15427   
     axis 0 0 0   XYZ
    dof rx ry rz
    limits (-20.0 45.0)
           (-30.0 30.0)
           (-30.0 30.0)
  end
  begin
     id 13 
     name thorax
     direction 0.0151014 0.999868 0.0059419   
     length 2.14898   
     axis 0 0 0   XYZ
    dof rx ry rz
    limits (-20.0 45.0)
           (-30.0 30.0)
           (-30.0 30.0)
  end
  begin
     id 14 
     name lowerneck
     direction -0.0249197 0.989906 0.139515   
     length 1.6861   
     axis 0 0 0   XYZ
    dof rx ry rz
    limits (-20.0 45.0)
           (-30.0 30.0)
           (-30.0 30.0)
  end
  begin
     id 15 
     name upperneck
     direction 0.0438463 0.988795 -0.142693   
     length 1.71276   
     axis 0 0 0   XYZ
    dof rx ry rz
    limits (-20.0 45.0)
           (-30.0 30.0)
           (-30.0 30.0)
  end
  begin
     id 16
     name head
     direction 0.0148499 0.997845 -0.0639186  
     length 1.7209  
     axis 0 0 0   XYZ
    dof rx ry rz
    limits (-20.0 45.0)
           (-30.0 30.0)
           (-30.0 30.0)
  end
  begin
     id 17 
     name lclavicle
     direction 0.940298 0.323464 -0.105876  
     length 3.9048  
     axis 0 0 0   XYZ
    dof ry rz
    limits (-20.0 10.0)
           (0.0 20.0)
  end
  begin
     id 18 
     name lhumerus
     direction 1 -4.48954e-011 -4.9675e-028   
     length 4.6851   
     axis 180 -30 -90   XYZ
    dof rx ry rz
    limits (-60.0 90.0)
           (-90.0 90.0)
           (-90.0 90.0)
  end
  begin
     id 19
     name lradius
     direction 1 -4.48992e-011 -1.03359e-026   
     length 3.39626   
     axis 180 -30 -90   XYZ
    dof rx
    limits (-10.0 170.0)
  end
  begin
     id 20
     name lwrist
     direction 1 -4.48906e-011 -1.67336e-026   
     length 1.69813   
     axis 9.90442e-015 90 90   XYZ
    dof ry
    limits (-180.0 0.0)
 end
  begin
     id 21 
     name lhand
     direction 1 -4.49006e-011 -3.34673e-026   
     length 0.486078   
     axis 2.1355e-014 90 90   XYZ
    dof rx rz
    limits (-90.0 90.0)
           (-45.0 45.0)
  end
  begin
     id 22 
     name lfingers
     direction 1 -4.48992e-011 -6.69345e-026   
     length 0.391889   
     axis 4.27099e-014 90 90   XYZ
    dof rx
    limits (0.0 90.0)
  end
  begin
     id 23
     name lthumb
     direction 0.707107 -6.34926e-011 0.707107   
     length 0.562676   
     axis -90 45 2.85299e-015   XYZ
    dof rx rz
    limits (-45.0 45.0)
           (-45.0 45.0)
  end
  begin
     id 24 
     name rclavicle
     direction -0.882459 0.414895 -0.221648   
     length 3.44646  
     axis 0 0 0   XYZ 
    dof ry rz
    limits (-10.0 20.0)
           (-20.0 0.0)
  end
  begin
     id 25 
     name rhumerus
     direction -1 -4.48962e-011 -2.37984e-027  
     length 5.55576   
     axis 180 30 90   XYZ
    dof rx ry rz
    limits (-90.0 60.0)
           (-90.0 90.0)
           (-90.0 90.0)
  end
  begin
     id 26 
     name rradius
     direction -1 -4.48982e-011 -6.86791e-027   
     length 3.32774   
     axis 180 30 90   XYZ
    dof rx
    limits (-10.0 170.0)
  end
  begin
     id 27 
     name rwrist
     direction -1 -4.48961e-011 -1.67336e-026   
     length 1.66387   
     axis 9.90442e-015 -90 -90   XYZ
    dof ry
    limits (-180.0 0.0)
  end
  begin
     id 28
     name rhand
     direction -1 -4.4897e-011 -3.34673e-026   
     length 0.507628   
     axis 2.1355e-014 -90 -90   XYZ
    dof rx rz
    limits (-90.0 90.0)
           (-45.0 45.0)
  end
  begin
     id 29
     name rfingers
     direction -1 -4.48854e-011 -6.69345e-026   
     length 0.409263   
     axis 4.27099e-014 -90 -90   XYZ
    dof rx
    limits (0.0 90.0)
  end
  begin
     id 30
     name rthumb
     direction -0.707107 -6.34913e-011 0.707107   
     length 0.587622   
     axis -90 -45 -2.85299e-015   XYZ
    dof rx rz
    limits (-45.0 45.0)
           (-45.0 45.0)
  end
:hierarchy
  begin
    root lhipjoint rhipjoint lowerback
    lhipjoint lfemur
    lfemur ltibia
    ltibia lfoot
    lfoot ltoes
    rhipjoint rfemur
    rfemur rtibia
    rtibia rfoot
    rfoot rtoes
    lowerback upperback
    upperback thorax
    thorax lowerneck lclavicle rclavicle
    lowerneck upperneck
    upperneck head
    lclavicle lhumerus
    lhumerus lradius
    lradius lwrist
    lwrist lhand lthumb
    lhand lfingers
    rclavicle rhumerus
    rhumerus rradius
    rradius rwrist
    rwrist rhand rthumb
    rhand rfingers
  end

#!OML:ASF E:\motion texture\Top Level 1\Subject 1\Session 1\male.ASF
:FULLY-SPECIFIED
:DEGREES
51
root 39.547 17.5646 5.5144 145.266 -80.7465 -134.022
lowerback -2.65812 1.39763 7.90411
upperback -0.249879 1.40155 4.64528
thorax 1.31822 0.659243 0.42507
lowerneck -14.1005 -3.66467 -7.88718
upperneck -6.4653 -4.02553 6.88031
head 0.68914 -1.91358 3.45766
rclavicle 1.39149e-015 -4.92986e-014
rhumerus -25.186 -27.8872 -77.5571
rradius 15.7815
rwrist 1.08258
rhand -13.2872 -55.8546
rfingers 7.12502
rthumb 12.8163 -85.4412
lclavicle 1.39149e-015 -4.92986e-014
lhumerus -35.518 31.3057 75.1501
lradius 19.2665
lwrist -43.6261
lhand -11.8509 20.4456
lfingers 7.12502
lthumb 14.2007 49.9402
rfemur -5.01392 3.9911 31.1104
rtibia 15.1739
rfoot -15.6656 -10.9135
rtoes 8.68204
lfemur -36.8666 2.11519 -9.51973
ltibia 23.0874
lfoot -7.15813 6.47699
ltoes -12.2166
52
root 39.4663 17.5524 5.50796 145.427 -80.6541 -134.159
lowerback -2.69828 1.49075 7.93542
upperback -0.267085 1.52129 4.62838
thorax 1.33035 0.719005 0.396256
lowerneck -14.0734 -3.69547 -7.94351
upperneck -6.83752 -4.06379 6.95626
head 0.567002 -1.93639 3.49477
rclavicle 8.54774e-015 1.43125e-014
rhumerus -24.4288 -27.4535 -78.335
rradius 15.8534
rwrist -0.0153724
rhand -13.2105 -56.3137
rfingers 7.12502
rthumb 12.8903 -85.8956
lclavicle 8.54774e-015 1.43125e-014
lhumerus -35.4092 31.3603 75.0523
lradius 19.2056
lwrist -43.6971
lhand -11.8227 20.37
lfingers 7.12502
lthumb 14.2279 49.8626
rfemur -4.7476 3.94952 31.1433
rtibia 15.1983
rfoot -15.8193 -10.8464
rtoes 8.24014
lfemur -36.8384 1.90759 -9.34104
ltibia 22.211
lfoot -6.96147 6.6199
ltoes -12.1641
53
root 39.3835 17.5402 5.50176 145.618 -80.5608 -134.33
lowerback -2.74289 1.58366 7.96089
upperback -0.288673 1.64089 4.60922
thorax 1.3405 0.77859 0.368516
lowerneck -14.0381 -3.72712 -8.00569
upperneck -7.19983 -4.10264 7.03691
head 0.447204 -1.9593 3.53514
rclavicle -5.36719e-015 -3.18055e-014
rhumerus -23.6277 -26.8775 -79.1728
rradius 15.9803
rwrist -1.23966
rhand -13.1355 -56.7706
rfingers 7.12502
rthumb 12.9626 -86.3479
lclavicle -5.36719e-015 -3.18055e-014
lhumerus -35.2658 31.3519 75.0057
lradius 19.1746
lwrist -43.7017
lhand -11.7915 20.3062
lfingers 7.12502
lthumb 14.2579 49.7968
rfemur -4.47772 3.90892 31.1675
rtibia 15.234
rfoot -15.9685 -10.7718
rtoes 7.78224
lfemur -36.7983 1.69364 -9.1632
ltibia 21.3796
lfoot -6.76186 6.77267
ltoes -12.1162
54
root 39.2987 17.5281 5.49583 145.828 -80.4666 -134.521
lowerback -2.78764 1.67729 7.98226
upperback -0.314535 1.76207 4.58751
thorax 1.34649 0.838801 0.340562
lowerneck -14.0087 -3.76228 -8.07125
upperneck -7.5455 -4.14517 7.12053
head 0.334462 -1.98376 3.57731
rclavicle -6.16232e-015 -1.98785e-014
rhumerus -22.7872 -26.1631 -80.0607
rradius 16.1679
rwrist -2.58869
rhand -13.056 -57.2084
rfingers 7.12502
rthumb 13.0392 -86.7808
lclavicle -6.16232e-015 -1.98785e-014
lhumerus -35.082 31.2776 75.014
lradius 19.1725
lwrist -43.6407
lhand -11.7678 20.2421
lfingers 7.12502
lthumb 14.2807 49.731
rfemur -4.20567 3.86995 31.1849
rtibia 15.2825
rfoot -16.1114 -10.6917
rtoes 7.30265
lfemur -36.7481 1.47438 -8.98578
ltibia 20.5974
lfoot -6.56057 6.93113
ltoes -12.0674
55
root 39.2117 17.5161 5.49025 146.068 -80.3709 -134.745
lowerback -2.83288 1.77266 8.00023
upperback -0.342478 1.886 4.56183
thorax 1.35091 0.900372 0.310636
lowerneck -13.9916 -3.80128 -8.13953
upperneck -7.87352 -4.19155 7.20854
head 0.230217 -2.00978 3.62153
rclavicle 1.27222e-014 2.14687e-014
rhumerus -21.9102 -25.3163 -80.9882
rradius 16.4204
rwrist -4.05878
rhand -12.9638 -57.6263
rfingers 7.12502
rthumb 13.1281 -87.193
lclavicle 1.27222e-014 2.14687e-014
lhumerus -34.8515 31.1311 75.0825
lradius 19.201
lwrist -43.5085
lhand -11.7466 20.1911
lfingers 7.12502
lthumb 14.3012 49.6786
rfemur -3.93112 3.83185 31.1929
rtibia 15.3444
rfoot -16.2467 -10.6028
rtoes 6.80567
lfemur -36.6865 1.24966 -8.8106
ltibia 19.8674
lfoot -6.36028 7.09653
ltoes -12.0019
56
root 39.1226 17.5044 5.48499 146.319 -80.2791 -134.983
lowerback -2.87783 1.86676 8.01334
upperback -0.374168 2.00899 4.53263
thorax 1.35134 0.961351 0.279773
lowerneck -13.981 -3.84325 -8.20895
upperneck -8.18403 -4.24111 7.29833
head 0.133235 -2.03709 3.66662
rclavicle 1.88845e-014 3.57812e-014
rhumerus -21.0071 -24.3432 -81.9403
rradius 16.7415
rwrist -5.64049
rhand -12.832 -57.9842
rfingers 7.12502
rthumb 13.2551 -87.5427
lclavicle 1.88845e-014 3.57812e-014
lhumerus -34.58 30.9125 75.2073
lradius 19.2611
lwrist -43.3047
lhand -11.7276 20.1515
lfingers 7.12502
lthumb 14.3194 49.6377
rfemur -3.65374 3.79253 31.1909
rtibia 15.4207
rfoot -16.374 -10.5094
rtoes 6.28707
lfemur -36.615 1.01969 -8.64299
ltibia 19.1927
lfoot -6.15498 7.26467
ltoes -11.9373
57
root 39.0313 17.4931 5.48013 146.584 -80.1876 -135.24
lowerback -2.92475 1.96061 8.02492
upperback -0.407772 2.13182 4.4995
thorax 1.35113 1.02226 0.245868
lowerneck -13.9756 -3.88722 -8.2806
upperneck -8.48056 -4.29244 7.39221
head 0.0420933 -2.06502 3.71369
rclavicle -3.97569e-016 -5.08889e-014
rhumerus -20.0818 -23.2569 -82.9042
rradius 17.1346
rwrist -7.3209
rhand -12.6539 -58.2882
rfingers 7.12502
rthumb 13.4268 -87.8355
lclavicle -3.97569e-016 -5.08889e-014
lhumerus -34.2665 30.6245 75.3861
lradius 19.3525
lwrist -43.0315
lhand -11.7125 20.1242
lfingers 7.12502
lthumb 14.334 49.6094
rfemur -3.37537 3.75335 31.18
rtibia 15.5146
rfoot -16.4919 -10.4085
rtoes 5.74566
lfemur -36.5328 0.788282 -8.48166
ltibia 18.5761
lfoot -5.94675 7.43495
ltoes -11.8502
58
root 38.9378 17.4823 5.47568 146.868 -80.0965 -135.518
lowerback -2.97226 2.05454 8.03445
upperback -0.443615 2.25514 4.46245
thorax 1.3492 1.08339 0.2092
lowerneck -13.9806 -3.93466 -8.35228
upperneck -8.75822 -4.3475 7.48718
head -0.0406815 -2.0945 3.76099
rclavicle 1.90833e-014 3.97569e-015
rhumerus -19.1402 -22.0739 -83.8648
rradius 17.6027
rwrist -9.0842
rhand -12.5349 -58.6537
rfingers 7.12502
rthumb 13.5415 -88.1934
lclavicle 1.90833e-014 3.97569e-015
lhumerus -33.9124 30.2637 75.6187
lradius 19.4756
lwrist -42.687
lhand -11.7098 20.1011
lfingers 7.12502
lthumb 14.3367 49.5861
rfemur -3.09785 3.71424 31.1595
rtibia 15.6293
rfoot -16.5997 -10.3002
rtoes 5.1792
lfemur -36.4394 0.557729 -8.32865
ltibia 18.0188
lfoot -5.73748 7.60386
ltoes -11.7383
59
root 38.8421 17.4719 5.47166 147.153 -80.009 -135.803
lowerback -3.01722 2.1465 8.04084
upperback -0.484734 2.37682 4.42294
thorax 1.34041 1.14344 0.171569
lowerneck -13.9897 -3.98394 -8.42535
upperneck -9.01686 -4.40419 7.58288
head -0.116252 -2.12443 3.8088
rclavicle -3.18055e-015 -5.40694e-014
rhumerus -18.1923 -20.8082 -84.8055
rradius 18.1478
rwrist -10.9143
rhand -12.4172 -59.0183
rfingers 7.12502
rthumb 13.6549 -88.5504
lclavicle -3.18055e-015 -5.40694e-014
lhumerus -33.5278 29.8338 75.8982
lradius 19.6307
lwrist -42.2765
lhand -11.711 20.0869
lfingers 7.12502
lthumb 14.3355 49.5719
rfemur -2.82158 3.67446 31.1296
rtibia 15.7666
rfoot -16.6961 -10.1868
rtoes 4.59019
lfemur -36.3361 0.330956 -8.18916
ltibia 17.5225
lfoot -5.52532 7.76253
ltoes -11.5987
60
root 38.7443 17.4621 5.46812 147.445 -79.9233 -136.099
lowerback -3.05637 2.23686 8.04359
upperback -0.532476 2.49778 4.382
thorax 1.32152 1.20273 0.134154
lowerneck -14.0017 -4.03492 -8.50123
upperneck -9.25677 -4.46216 7.68001
head -0.184856 -2.15459 3.85763
rclavicle 4.96962e-016 -1.90833e-014
rhumerus -17.2456 -19.4623 -85.7161
rradius 18.7789
rwrist -12.8155
rhand -12.3123 -59.3923
rfingers 7.12502
rthumb 13.756 -88.9176
lclavicle 4.96962e-016 -1.90833e-014
lhumerus -33.1174 29.3322 76.2236
lradius 19.8199
lwrist -41.7966
lhand -11.7141 20.0923
lfingers 7.12502
lthumb 14.3325 49.5776
rfemur -2.5484 3.63396 31.0902
rtibia 15.9297
rfoot -16.7796 -10.0668
rtoes 3.9761
lfemur -36.2219 0.111358 -8.06409
ltibia 17.0857
lfoot -5.30871 7.90832
ltoes -11.4345
61
root 38.6442 17.4529 5.46509 147.742 -79.8416 -136.406
lowerback -3.09408 2.32452 8.04405
upperback -0.585146 2.61592 4.33815
thorax 1.29674 1.26038 0.0947633
lowerneck -14.0139 -4.08638 -8.5782
upperneck -9.47993 -4.52018 7.77845
head -0.247758 -2.18445 3.90719
rclavicle 1.25234e-014 2.70347e-014
rhumerus -16.2968 -18.0742 -86.5857
rradius 19.4889
rwrist -14.7474
rhand -12.2164 -59.757
rfingers 7.12502
rthumb 13.8485 -89.276
lclavicle 1.25234e-014 2.70347e-014
lhumerus -32.6837 28.7629 76.5879
lradius 20.0429
lwrist -41.2531
lhand -11.7199 20.1162
lfingers 7.12502
lthumb 14.3269 49.6018
rfemur -2.27906 3.5917 31.0397
rtibia 16.1192
rfoot -16.8485 -9.93959
rtoes 3.34159
lfemur -36.0963 -0.0977313 -7.95849
ltibia 16.7076
lfoot -5.0879 8.03426
ltoes -11.2317
62
root 38.5419 17.4445 5.46259 148.047 -79.7649 -136.725
lowerback -3.12332 2.40965 8.03086
upperback -0.646603 2.73266 4.29905
thorax 1.25729 1.31663 0.0671708
lowerneck -14.0288 -4.13939 -8.66029
upperneck -9.68142 -4.57906 7.87121
head -0.302926 -2.21418 3.9556
rclavicle 3.05134e-014 1.05753e-013
rhumerus -15.3558 -16.6375 -87.3951
rradius 20.2855
rwrist -16.7139
rhand -12.1289 -60.1262
rfingers 7.12502
rthumb 13.9328 -89.6394
lclavicle 3.05134e-014 1.05753e-013
lhumerus -32.2382 28.1374 76.992
lradius 20.2986
lwrist -40.6564
lhand -11.7283 20.1559
lfingers 7.12502
lthumb 14.3188 49.6422
rfemur -2.01628 3.54703 30.9767
rtibia 16.34
rfoot -16.9012 -9.80554
rtoes 2.68485
lfemur -35.9591 -0.295675 -7.87557
ltibia 16.3875
lfoot -4.86048 8.14052
ltoes -10.9998
63
root 38.4374 17.4368 5.46069 148.365 -79.693 -137.064
lowerback -3.15981 2.49245 8.02411
upperback -0.704177 2.8454 4.24931
thorax 1.22666 1.37141 0.0253314
lowerneck -14.053 -4.19325 -8.73545
upperneck -9.87103 -4.63914 7.96897
head -0.352434 -2.24449 4.00426
rclavicle -1.70955e-014 -8.74653e-015
rhumerus -14.397 -15.2001 -88.1632
rradius 21.1598
rwrist -18.6741
rhand -12.0478 -60.4892
rfingers 7.12502
rthumb 14.0109 -89.997
lclavicle -1.70955e-014 -8.74653e-015
lhumerus -31.7561 27.4475 77.4247
lradius 20.585
lwrist -40.0002
lhand -11.7389 20.2126
lfingers 7.12502
lthumb 14.3086 49.6996
rfemur -1.76204 3.49807 30.8991
rtibia 16.5944
rfoot -16.936 -9.66116
rtoes 2.01055
lfemur -35.8091 -0.480005 -7.81777
ltibia 16.1226
lfoot -4.62696 8.22689
ltoes -10.736
64
root 38.3307 17.43 5.45936 148.691 -79.6295 -137.416
lowerback -3.19419 2.57093 8.01216
upperback -0.767081 2.95336 4.1968
thorax 1.18907 1.42355 -0.0169463
lowerneck -14.075 -4.24714 -8.80935
upperneck -10.0449 -4.69916 8.06583
head -0.39705 -2.27452 4.05234
rclavicle 3.8763e-015 -4.69132e-014
rhumerus -13.4358 -13.7648 -88.8706
rradius 22.1134
rwrist -20.6192
rhand -11.9678 -60.8418
rfingers 7.12502
rthumb 14.0881 -269.656
lclavicle 3.8763e-015 -4.69132e-014
lhumerus -31.2622 26.7035 77.8799
lradius 20.9029
lwrist -39.2975
lhand -11.7543 20.2816
lfingers 7.12502
lthumb 14.2938 49.7697
rfemur -1.51943 3.44521 30.8064
rtibia 16.8864
rfoot -16.9504 -9.51032
rtoes 1.31867
lfemur -35.6479 -0.650671 -7.78885
ltibia 15.9131
lfoot -4.38748 8.29068
ltoes -10.4407
